<?xml version="1.0" standalone="no"?>
<!DOCTYPE svg PUBLIC "-//W3C//DTD SVG 20010904//EN"
 "http://www.w3.org/TR/2001/REC-SVG-20010904/DTD/svg10.dtd">
<svg version="1.0" xmlns="http://www.w3.org/2000/svg"
 width="900.000000pt" height="900.000000pt" viewBox="0 0 900.000000 900.000000"
 preserveAspectRatio="xMidYMid meet">
<metadata>
Created by potrace 1.10, written by Peter Selinger 2001-2011
</metadata>
<g transform="translate(0.000000,900.000000) scale(0.100000,-0.100000)"
fill="#000000" stroke="none">
<path d="M4095 8524 c-618 -78 -1084 -224 -1574 -496 -906 -503 -1606 -1369
-1902 -2353 -126 -417 -179 -769 -179 -1183 0 -253 9 -372 46 -607 134 -858
526 -1635 1132 -2243 628 -630 1409 -1025 2282 -1156 234 -35 285 -39 528 -43
256 -5 379 3 647 43 741 109 1410 409 2005 898 194 159 484 465 647 681 184
246 394 609 492 852 12 29 30 75 41 102 99 246 191 590 234 886 40 268 48 391
43 647 -4 243 -8 294 -43 528 -64 425 -183 807 -369 1185 -323 656 -793 1191
-1406 1602 -160 108 -409 246 -569 316 -228 100 -442 175 -665 231 -220 55
-364 81 -615 111 -161 19 -618 19 -775 -1z m766 -369 c300 -30 601 -100 905
-209 148 -53 429 -185 533 -250 20 -12 43 -26 51 -30 39 -18 215 -134 305
-200 787 -576 1310 -1427 1470 -2391 57 -341 60 -773 9 -1110 -100 -656 -346
-1226 -755 -1750 -89 -114 -149 -176 -149 -154 0 8 15 53 34 101 76 194 100
313 100 503 0 227 -42 399 -152 620 -117 236 -338 483 -617 691 -167 125 -284
188 -430 232 -314 96 -639 112 -1140 57 -583 -64 -855 -78 -1101 -55 -185 18
-303 54 -444 136 -184 108 -336 297 -375 469 -37 158 -7 373 69 494 37 58 34
80 -18 124 -26 22 -56 60 -73 94 -26 54 -28 67 -28 178 0 90 5 135 19 178 10
32 20 56 23 54 2 -3 5 -52 8 -110 3 -105 15 -160 63 -292 36 -98 99 -163 200
-206 77 -33 78 -33 242 -33 234 1 295 18 637 187 84 41 170 77 192 81 88 14
272 -44 491 -154 222 -111 324 -184 474 -342 346 -360 347 -362 562 -377 71
-6 172 -19 224 -29 52 -11 146 -25 208 -32 157 -16 185 -8 289 81 45 38 90 69
100 69 36 0 53 -54 93 -295 30 -177 58 -307 87 -395 99 -306 298 -580 495
-679 186 -93 327 -73 468 68 111 112 120 162 20 115 -147 -69 -318 -86 -409
-40 -83 42 -142 129 -110 161 12 12 25 11 89 -5 169 -44 343 -11 450 86 122
110 186 333 133 466 -47 120 -173 220 -255 202 -44 -9 -37 -43 19 -84 75 -56
88 -87 87 -205 -2 -206 -69 -297 -239 -324 -87 -13 -187 1 -262 36 -70 33
-156 127 -210 229 -40 76 -113 279 -113 314 0 30 -77 253 -126 364 -63 145
-106 207 -208 302 -65 62 -85 86 -80 99 6 15 17 17 73 13 117 -9 174 -55 196
-160 21 -104 144 1 145 123 0 32 9 65 30 104 24 45 30 70 30 117 0 50 5 70 30
110 35 56 38 100 10 135 -22 29 -26 63 -7 64 53 3 87 21 87 46 0 28 -40 99
-97 172 -67 85 -148 141 -217 148 -38 5 -54 0 -119 -36 -41 -22 -86 -41 -100
-41 -58 0 -161 43 -254 106 -131 90 -166 103 -297 114 -129 10 -155 17 -219
57 -63 39 -256 229 -263 259 -3 13 -3 36 0 50 9 33 79 65 163 75 82 8 97 21
89 76 -16 117 -121 255 -264 347 -108 70 -163 86 -299 86 -109 0 -114 1 -135
25 -12 14 -32 49 -43 78 -34 87 -54 116 -95 137 -56 29 -193 40 -470 38 -257
-1 -296 5 -333 54 -19 26 -19 26 9 83 24 48 26 57 14 65 -8 5 -24 7 -35 4 -35
-10 -125 -76 -147 -108 -36 -53 -91 -106 -110 -106 -11 0 -28 15 -39 34 -21
36 -71 66 -111 66 -12 0 -57 7 -99 15 -225 43 -343 151 -327 298 11 93 70 172
163 218 56 27 76 32 143 32 92 1 120 -12 204 -91 31 -30 61 -51 67 -48 16 10
14 70 -4 113 -8 19 -15 46 -15 59 0 20 6 23 58 30 202 25 476 25 733 -1z
m-1626 -262 c11 -81 45 -196 71 -240 30 -51 87 -101 163 -142 67 -36 86 -54
77 -77 -9 -22 -79 -15 -200 20 -48 14 -159 37 -245 51 -218 34 -273 53 -298
100 -23 42 30 110 118 155 52 27 105 25 158 -5 48 -28 81 -32 81 -11 0 24 -28
81 -49 100 -33 30 -26 50 27 73 77 34 90 31 97 -24z m-659 -320 c10 -63 46
-126 89 -155 56 -39 235 -98 329 -109 44 -5 82 -12 85 -15 3 -2 -2 -12 -11
-21 -23 -23 -136 -41 -333 -53 -267 -16 -335 -30 -455 -94 -179 -95 -333 -256
-545 -570 -99 -146 -148 -170 -202 -99 -15 20 -40 50 -55 66 -16 16 -28 32
-28 37 0 12 100 150 189 260 101 127 390 415 521 521 58 47 152 118 210 158
58 40 116 81 130 92 14 10 35 18 47 18 19 1 24 -6 29 -36z m2154 -762 c80 -23
108 -38 232 -122 29 -20 69 -45 88 -56 82 -45 98 -64 64 -77 -39 -15 -240 22
-409 74 -69 22 -117 31 -155 30 -30 -1 -84 -3 -120 -4 l-65 -1 -3 33 c-3 28 3
40 36 70 22 21 60 45 84 54 59 23 168 22 248 -1z m-3290 -514 c13 -17 42 -48
66 -67 49 -40 61 -68 43 -102 -6 -12 -48 -61 -93 -108 -45 -47 -94 -110 -109
-140 -90 -174 -123 -413 -112 -810 13 -436 -30 -753 -125 -917 -35 -61 -57
-78 -125 -94 -111 -26 -118 -40 -55 -111 61 -70 122 -92 250 -92 137 0 163 14
259 132 63 77 72 73 115 -61 68 -208 170 -390 358 -639 115 -153 116 -154 87
-209 -20 -38 -23 -58 -21 -145 0 -56 8 -164 17 -240 24 -205 9 -268 -70 -294
-28 -9 -53 -8 -134 9 -120 25 -137 26 -145 5 -15 -38 88 -153 170 -191 157
-72 295 -45 378 75 35 51 75 164 76 213 0 59 39 158 77 195 25 26 42 34 69 34
99 0 173 -107 189 -270 8 -91 26 -165 60 -248 29 -72 27 -92 -17 -138 -63 -67
-7 -112 73 -60 47 31 82 83 102 151 8 28 22 76 31 108 24 82 43 88 138 50 42
-18 120 -38 183 -48 146 -23 289 -51 348 -70 128 -39 235 -115 273 -193 23
-47 30 -160 14 -218 -28 -101 -145 -186 -313 -229 -268 -68 -645 -51 -1031 46
-224 57 -468 161 -545 232 -100 95 -295 319 -400 462 -50 67 -181 262 -181
269 0 2 -26 48 -58 103 -155 262 -302 635 -376 953 -72 310 -100 550 -100 855
0 562 125 1098 375 1610 76 157 183 343 208 363 14 12 17 6 22 -63 5 -55 13
-84 29 -108z m3544 -173 c197 -50 387 -168 676 -423 295 -261 442 -355 602
-388 56 -11 90 -23 94 -33 12 -29 16 -304 5 -333 -15 -39 -32 -42 -124 -22
-244 52 -413 140 -787 408 -150 108 -405 279 -475 319 -66 37 -149 74 -330
144 -142 55 -165 69 -165 98 0 30 124 145 195 180 71 35 167 64 214 65 18 1
61 -6 95 -15z m1334 -218 c115 -31 135 -74 50 -102 -29 -9 -81 -30 -115 -45
-34 -16 -67 -29 -73 -29 -21 0 -60 49 -60 76 0 56 59 112 120 113 14 1 49 -6
78 -13z m351 -844 c48 -39 61 -84 34 -120 -24 -32 -52 -38 -90 -19 -41 22 -68
48 -87 84 -21 41 -20 49 5 74 29 29 89 21 138 -19z"/>
</g>
</svg>
