<?xml version="1.0" standalone="no"?>
<!DOCTYPE svg PUBLIC "-//W3C//DTD SVG 20010904//EN"
 "http://www.w3.org/TR/2001/REC-SVG-20010904/DTD/svg10.dtd">
<svg version="1.0" xmlns="http://www.w3.org/2000/svg"
 width="300.000000pt" height="300.000000pt" viewBox="0 0 300.000000 300.000000"
 preserveAspectRatio="xMidYMid meet">
<metadata>
Created by potrace 1.10, written by Peter Selinger 2001-2011
</metadata>
<g transform="translate(0.000000,300.000000) scale(0.100000,-0.100000)"
fill="#000000" stroke="none">
<path d="M1300 2835 c-311 -51 -571 -190 -784 -416 -378 -402 -472 -998 -235
-1496 180 -378 533 -655 949 -744 138 -30 381 -32 513 -6 279 56 510 179 707
377 198 197 321 428 377 707 26 131 24 375 -5 510 -59 272 -176 488 -371 684
-197 196 -412 313 -691 374 -105 22 -352 28 -460 10z m457 -54 c265 -54 464
-163 664 -361 197 -196 307 -400 366 -680 24 -117 24 -363 0 -480 -56 -263
-170 -481 -349 -666 -187 -193 -414 -319 -681 -376 -145 -31 -370 -30 -517 1
-334 71 -611 253 -811 532 -187 259 -273 620 -225 934 92 593 541 1031 1141
1114 102 14 294 6 412 -18z"/>
<path d="M1361 2755 c-18 -8 -53 -15 -78 -15 -55 0 -95 -20 -124 -62 -12 -18
-24 -35 -26 -37 -2 -3 -17 9 -34 25 -28 27 -32 28 -53 14 -12 -8 -38 -24 -57
-35 -18 -11 -48 -35 -66 -53 -28 -28 -36 -31 -53 -22 -28 15 -67 -5 -167 -85
-218 -174 -383 -443 -444 -725 -44 -199 -29 -453 36 -655 77 -236 267 -502
402 -561 133 -59 315 -86 441 -64 113 19 177 75 177 155 0 77 -60 133 -167
155 -35 7 -88 18 -118 26 -48 12 -58 11 -79 -2 -27 -18 -41 -7 -41 32 0 30
-41 87 -73 102 -32 15 -60 4 -94 -37 -11 -14 -25 -22 -29 -18 -4 4 -8 47 -8
95 -1 71 -5 93 -21 116 -64 92 -96 146 -112 190 -17 47 -53 96 -71 96 -5 0
-26 -13 -47 -30 -38 -30 -65 -39 -65 -21 0 6 4 13 10 16 5 3 19 36 31 73 17
54 22 101 25 242 6 211 14 249 66 318 33 45 39 59 34 84 -5 24 -2 34 14 45 11
8 34 35 51 61 44 66 118 140 159 162 20 10 70 21 115 25 111 9 141 20 157 56
13 30 14 30 73 24 55 -6 62 -5 83 18 23 24 25 24 73 12 28 -8 57 -19 65 -26
13 -10 22 -10 48 5 29 15 34 16 61 2 21 -11 59 -16 128 -16 l99 0 42 -43 c36
-38 50 -45 95 -50 54 -6 121 -45 121 -71 0 -7 -13 -25 -30 -41 -45 -43 -40
-69 25 -132 37 -36 68 -57 98 -65 l44 -11 -34 -30 c-38 -34 -44 -74 -13 -102
42 -38 157 18 144 71 l-6 22 46 -16 c38 -14 50 -15 81 -3 31 11 39 10 61 -4
23 -15 24 -21 19 -63 -9 -67 -26 -142 -33 -142 -3 0 -20 5 -39 12 -28 10 -38
9 -79 -12 -45 -22 -48 -22 -61 -5 -7 11 -13 23 -13 27 0 5 -33 24 -72 42 -40
18 -86 45 -103 60 -151 136 -267 206 -340 206 -53 -1 -133 -45 -158 -88 -20
-33 -20 -34 2 -62 25 -35 26 -40 5 -40 -9 0 -55 -19 -103 -41 -68 -33 -101
-42 -158 -46 -70 -5 -73 -5 -102 24 -16 17 -34 49 -40 74 -20 79 -26 94 -43
97 -23 4 -47 -35 -54 -91 -5 -36 -2 -55 14 -86 21 -40 21 -42 5 -104 -14 -54
-15 -72 -5 -118 25 -106 126 -202 247 -234 74 -19 190 -19 370 0 256 27 401
15 507 -42 72 -39 209 -176 242 -241 58 -116 66 -197 30 -336 -18 -69 -11
-106 12 -66 25 45 54 151 54 199 0 65 -25 153 -63 225 -59 110 -207 241 -328
288 -77 30 -248 35 -485 13 -291 -27 -378 -11 -475 84 -42 41 -60 68 -69 101
-14 51 -7 117 15 161 15 29 15 31 -10 60 -21 26 -25 41 -25 92 0 34 5 69 10
77 11 17 13 10 10 -36 -2 -50 19 -112 50 -147 28 -32 29 -32 122 -32 90 0 96
2 181 44 106 52 122 52 252 -13 74 -36 106 -61 180 -134 50 -50 101 -93 115
-95 56 -11 189 -29 223 -30 27 -1 44 6 65 26 38 36 50 34 58 -10 21 -122 46
-219 71 -269 55 -113 156 -188 229 -170 27 7 101 72 92 81 -3 3 -21 -2 -41
-10 -52 -21 -109 -19 -141 6 -14 11 -26 27 -26 35 0 17 3 17 49 3 48 -14 115
3 147 38 56 61 52 166 -8 203 -48 29 -67 14 -27 -22 29 -27 31 -33 25 -74 -8
-64 -21 -82 -66 -94 -98 -26 -161 28 -206 179 -36 119 -79 206 -114 231 -43
31 -40 50 6 40 39 -9 54 -23 54 -52 0 -10 7 -18 15 -18 18 0 35 31 35 64 0 14
5 28 10 31 6 3 10 17 10 30 0 13 5 36 12 50 9 19 9 28 0 37 -17 17 -15 29 5
26 33 -6 24 31 -20 76 -45 47 -75 57 -97 31 -20 -24 -62 -17 -120 20 -38 24
-67 35 -93 35 -21 0 -48 5 -60 12 -36 19 -105 78 -112 96 -8 21 20 42 56 42
40 0 44 14 17 63 -34 61 -106 107 -170 107 -47 0 -50 2 -63 35 -8 19 -24 39
-34 45 -11 5 -71 10 -133 10 -130 0 -148 6 -130 45 15 32 15 35 0 35 -6 0 -30
-21 -54 -46 -39 -44 -43 -45 -53 -26 -7 13 -25 22 -54 26 -90 14 -141 68 -117
126 25 61 111 80 157 34 30 -30 41 -24 26 15 -10 27 -9 29 19 35 54 11 188 6
295 -10 267 -39 496 -155 688 -348 231 -233 347 -499 362 -836 5 -106 2 -143
-17 -240 -39 -198 -112 -364 -235 -535 -66 -92 -70 -123 -8 -64 76 74 189 268
231 399 107 335 86 671 -59 962 -54 109 -81 149 -167 256 -163 202 -406 358
-658 422 -160 41 -386 53 -453 25z m-274 -136 c5 -50 26 -83 66 -104 41 -22
52 -51 15 -41 -13 3 -59 13 -103 22 -141 28 -160 43 -109 83 31 24 46 26 74 9
27 -17 37 -2 15 22 -20 22 -20 22 10 38 24 13 27 10 32 -29z m-220 -101 c2
-12 8 -27 14 -35 13 -15 101 -43 136 -43 13 0 23 -4 23 -9 0 -10 -43 -17 -157
-25 -117 -8 -186 -54 -280 -188 -57 -81 -75 -92 -93 -58 -17 32 -30 23 -30
-19 0 -30 6 -44 25 -59 14 -11 25 -22 25 -24 0 -2 -18 -23 -40 -47 -57 -61
-74 -125 -72 -276 1 -148 -13 -276 -38 -331 -14 -33 -25 -44 -49 -49 -38 -8
-39 -17 -5 -44 19 -15 41 -21 75 -21 43 0 51 4 75 35 28 37 44 38 44 2 0 -35
52 -136 110 -212 44 -58 50 -72 41 -87 -7 -12 -9 -51 -5 -118 8 -114 3 -122
-70 -102 -22 6 -43 8 -46 6 -8 -9 16 -38 50 -61 71 -49 138 -12 159 87 13 60
25 80 51 80 27 0 49 -33 60 -91 6 -30 15 -66 21 -82 10 -22 9 -31 -5 -46 -21
-23 -20 -31 2 -31 27 0 50 30 60 76 9 44 13 45 112 23 121 -26 164 -41 191
-69 60 -59 24 -143 -72 -171 -68 -19 -230 -15 -330 9 -136 33 -186 59 -258
138 -445 485 -420 1244 56 1706 65 63 204 170 212 162 3 -2 6 -14 8 -26z m858
-497 c33 -16 106 -67 162 -113 120 -101 156 -124 206 -133 l37 -7 0 -65 0 -66
-42 7 c-62 10 -157 57 -251 124 -129 93 -193 131 -265 158 -37 14 -71 29 -76
34 -11 11 38 58 79 76 46 20 85 17 150 -15z m399 -51 c27 -10 36 -30 14 -30
-7 0 -26 -7 -42 -15 -16 -9 -36 -13 -43 -11 -19 8 -16 43 5 55 22 13 34 13 66
1z m105 -281 c25 -24 23 -43 -5 -47 -25 -4 -59 32 -51 53 9 21 29 19 56 -6z
m-234 -70 c15 -14 -23 -11 -53 5 -15 8 -38 27 -52 42 l-25 28 60 -33 c33 -18
64 -37 70 -42z m183 -1 c20 -20 14 -28 -25 -28 -35 0 -36 0 -18 20 21 23 27
24 43 8z m249 -320 c24 -23 31 -52 11 -46 -15 5 -54 68 -42 68 4 0 18 -10 31
-22z"/>
<path d="M1484 2310 c-24 -9 -64 -56 -64 -74 0 -30 29 -50 81 -56 30 -4 81
-13 114 -20 70 -15 110 -9 125 21 10 17 6 25 -27 56 -70 67 -168 98 -229 73z
m170 -73 c32 -20 63 -38 70 -40 6 -2 8 -8 3 -12 -4 -5 -42 0 -85 10 -42 10
-102 19 -132 20 -52 1 -57 4 -51 33 3 18 48 32 91 28 29 -2 65 -16 104 -39z"/>
</g>
</svg>
